<svg width="20" height="20" viewBox="0 0 20 20" fill="none" xmlns="http://www.w3.org/2000/svg">
<path d="M5.83325 5.00016C6.05427 5.00016 6.26623 4.91237 6.42251 4.75608C6.57879 4.5998 6.66659 4.38784 6.66659 4.16683C6.66659 3.94582 6.57879 3.73385 6.42251 3.57757C6.26623 3.42129 6.05427 3.3335 5.83325 3.3335H4.16659C3.94557 3.3335 3.73361 3.42129 3.57733 3.57757C3.42105 3.73385 3.33325 3.94582 3.33325 4.16683V15.8335C3.33325 16.0545 3.42105 16.2665 3.57733 16.4228C3.73361 16.579 3.94557 16.6668 4.16659 16.6668H5.83325C6.05427 16.6668 6.26623 16.579 6.42251 16.4228C6.57879 16.2665 6.66659 16.0545 6.66659 15.8335C6.66659 15.6125 6.57879 15.4005 6.42251 15.2442C6.26623 15.088 6.05427 15.0002 5.83325 15.0002H4.99992V5.00016H5.83325Z" />
<path d="M17.35 9.51655L15 6.18321C14.8726 6.00355 14.6792 5.88166 14.4621 5.84419C14.245 5.80671 14.022 5.85669 13.8417 5.98321C13.7515 6.04637 13.6748 6.12675 13.6159 6.21972C13.557 6.31268 13.5171 6.4164 13.4985 6.52487C13.4799 6.63333 13.483 6.74441 13.5076 6.85169C13.5321 6.95896 13.5777 7.06031 13.6417 7.14988L15.075 9.16655H8.33333C8.11232 9.16655 7.90036 9.25434 7.74408 9.41062C7.5878 9.5669 7.5 9.77886 7.5 9.99988C7.5 10.2209 7.5878 10.4329 7.74408 10.5891C7.90036 10.7454 8.11232 10.8332 8.33333 10.8332H15L13.5 12.8332C13.4343 12.9208 13.3866 13.0204 13.3594 13.1264C13.3322 13.2324 13.3262 13.3427 13.3417 13.4511C13.3572 13.5594 13.3938 13.6636 13.4496 13.7578C13.5054 13.852 13.5791 13.9342 13.6667 13.9999C13.8109 14.1081 13.9864 14.1665 14.1667 14.1665C14.296 14.1665 14.4236 14.1364 14.5393 14.0786C14.6551 14.0207 14.7557 13.9367 14.8333 13.8332L17.3333 10.4999C17.4401 10.3589 17.4992 10.1877 17.5022 10.0109C17.5052 9.83417 17.4519 9.66103 17.35 9.51655Z" />
</svg>
